<?xml version="1.0" encoding="UTF-8" standalone="no"?>
<!-- Generator: Adobe Illustrator 16.0.0, SVG Export Plug-In . SVG Version: 6.00 Build 0)  -->

<svg
   xmlns:dc="http://purl.org/dc/elements/1.1/"
   xmlns:cc="http://creativecommons.org/ns#"
   xmlns:rdf="http://www.w3.org/1999/02/22-rdf-syntax-ns#"
   xmlns:svg="http://www.w3.org/2000/svg"
   xmlns="http://www.w3.org/2000/svg"
   xmlns:sodipodi="http://sodipodi.sourceforge.net/DTD/sodipodi-0.dtd"
   xmlns:inkscape="http://www.inkscape.org/namespaces/inkscape"
   version="1.1"
   id="Capa_1"
   x="0px"
   y="0px"
   width="94.006px"
   height="94.005px"
   viewBox="0 0 94.006 94.005"
   style="enable-background:new 0 0 94.006 94.005;"
   xml:space="preserve"
   sodipodi:docname="heart.svg"
   inkscape:version="0.92.3 (2405546, 2018-03-11)"><metadata
   id="metadata1615"><rdf:RDF><cc:Work
       rdf:about=""><dc:format>image/svg+xml</dc:format><dc:type
         rdf:resource="http://purl.org/dc/dcmitype/StillImage" /></cc:Work></rdf:RDF></metadata><defs
   id="defs1613" /><sodipodi:namedview
   pagecolor="#ffffff"
   bordercolor="#666666"
   borderopacity="1"
   objecttolerance="10"
   gridtolerance="10"
   guidetolerance="10"
   inkscape:pageopacity="0"
   inkscape:pageshadow="2"
   inkscape:window-width="1293"
   inkscape:window-height="713"
   id="namedview1611"
   showgrid="false"
   inkscape:zoom="2.5105048"
   inkscape:cx="0.59798911"
   inkscape:cy="47.002499"
   inkscape:window-x="67"
   inkscape:window-y="27"
   inkscape:window-maximized="1"
   inkscape:current-layer="Capa_1" />
<g
   id="g1578">
	<path
   sodipodi:type="inkscape:offset"
   inkscape:radius="0.50168401"
   inkscape:original="M 33.072266 9.8105469 C 29.09658 9.8999551 25.142484 10.888719 21.615234 12.839844 C 13.494234 17.313844 8.46875 25.822453 8.46875 35.064453 C 8.46875 37.723453 8.8918281 40.364812 9.6738281 42.632812 C 9.9658281 43.938812 10.436531 45.288688 11.019531 46.679688 L 2.8027344 46.679688 C 1.2687344 46.679688 0 47.938422 0 49.482422 C 2.9605947e-16 51.029422 1.2687344 52.282203 2.8027344 52.283203 L 35.482422 52.283203 C 36.597422 52.283203 37.608688 51.632609 38.054688 50.599609 L 41.039062 43.726562 L 44.818359 59.650391 C 45.089359 60.755391 45.978422 61.586578 47.107422 61.767578 C 47.244422 61.788578 47.393875 61.800781 47.546875 61.800781 C 48.509875 61.800781 49.415687 61.297125 49.929688 60.453125 L 57.986328 47.216797 L 66.564453 47.216797 C 68.109453 47.216797 69.365234 45.958062 69.365234 44.414062 C 69.365234 42.862063 68.109453 41.611328 66.564453 41.611328 L 56.414062 41.611328 C 55.434063 41.611328 54.527437 42.120125 54.023438 42.953125 L 48.673828 51.724609 L 44.539062 34.242188 C 44.271062 33.066187 43.2665 32.200703 42.0625 32.095703 C 40.8805 31.971703 39.732953 32.666484 39.251953 33.771484 L 33.634766 46.681641 L 17.277344 46.681641 C 16.264344 44.804641 15.468734 42.994531 15.052734 41.144531 C 14.404734 39.167531 14.056641 37.121406 14.056641 35.066406 C 14.056641 27.871406 17.9785 21.236 24.3125 17.75 C 32.3645 13.295 43.149406 15.341031 49.066406 22.457031 C 50.146406 23.741031 52.326719 23.741031 53.386719 22.457031 C 59.285719 15.346031 70.077625 13.283812 78.140625 17.757812 C 84.454625 21.235812 88.376953 27.874172 88.376953 35.076172 C 88.376953 37.145172 88.0455 39.184781 87.3125 41.425781 C 84.5065 54.111781 61.612187 71.311266 51.242188 78.072266 C 48.157188 76.026266 40.728953 70.948969 33.376953 64.667969 C 32.193953 63.676969 30.438828 63.818375 29.423828 64.984375 C 28.432828 66.160375 28.557281 67.917547 29.738281 68.935547 C 39.601281 77.373547 49.329609 83.512531 49.724609 83.769531 C 50.183609 84.071531 50.704516 84.203125 51.228516 84.203125 C 51.753516 84.203125 52.269516 84.054531 52.728516 83.769531 C 54.197516 82.839531 88.72575 60.983016 92.71875 42.916016 C 93.56875 40.381016 94.005859 37.743313 94.005859 35.070312 C 94.005859 25.822313 88.964516 17.307844 80.853516 12.839844 C 71.431516 7.6368437 58.992234 9.2711719 51.240234 16.576172 C 46.382109 12.011172 39.698408 9.6615332 33.072266 9.8105469 z "
   id="path1576"
   d="M 69.398438,9.3027344 C 62.795366,9.1514984 56.169258,11.467985 51.25,15.929688 46.317003,11.461855 39.667948,9.1600015 33.060547,9.3085938 29.009219,9.399703 24.976439,10.407147 21.373047,12.400391 13.093204,16.9619 7.9667969,25.640587 7.9667969,35.064453 c 0,2.701494 0.4277749,5.380723 1.2246093,7.703125 0.2503155,1.111758 0.6792758,2.25594 1.1347658,3.410156 H 2.8027344 c -1.80844015,0 -3.30468753,1.485859 -3.30468752,3.304688 0,1.821296 1.4977258,3.301556 3.30468752,3.302734 H 35.482422 c 1.310152,0 2.508196,-0.770337 3.033203,-1.986328 l 2.382813,-5.488281 3.43164,14.455078 a 0.50173418,0.50173418 0 0 0 0.002,0.0039 c 0.317598,1.295001 1.369925,2.281656 2.695313,2.494141 a 0.50173418,0.50173418 0 0 0 0.0039,0 c 0.162241,0.02487 0.335949,0.03906 0.515625,0.03906 1.137923,0 2.206471,-0.595986 2.810547,-1.58789 L 58.267578,47.71875 h 8.296875 c 1.817487,0 3.302734,-1.488665 3.302735,-3.304688 -10e-7,-1.822619 -1.48698,-3.304687 -3.302735,-3.304687 H 56.414062 c -1.153642,0 -2.225209,0.60041 -2.820312,1.583984 L 48.880859,50.421875 45.027344,34.130859 C 44.7116,32.745357 43.528401,31.725265 42.115234,31.597656 h -0.002 c -1.408181,-0.146825 -2.755702,0.671092 -3.322265,1.972656 a 0.50173418,0.50173418 0 0 0 0,0.002 L 33.306641,46.179688 H 17.591797 C 16.660216,44.42196 15.924915,42.733716 15.542969,41.035156 a 0.50173418,0.50173418 0 0 0 -0.01367,-0.04687 c -0.632653,-1.930175 -0.970703,-3.923528 -0.970703,-5.921875 0,-7.012694 3.82105,-13.478437 9.996094,-16.876953 7.829022,-4.331631 18.369382,-2.334025 24.125,4.587891 a 0.50173418,0.50173418 0 0 0 0.002,0.002 c 1.294099,1.538541 3.816777,1.542505 5.091797,-0.002 5.737462,-6.916273 16.283303,-8.930198 24.123046,-4.580078 a 0.50173418,0.50173418 0 0 0 0.002,0 c 6.154606,3.3902 9.976562,9.859056 9.976562,16.878906 0,2.01542 -0.320132,3.995373 -1.039062,6.193359 a 0.50173418,0.50173418 0 0 0 -0.01367,0.04883 C 85.471078,47.427113 79.116661,54.895627 71.775391,61.599609 64.53799,68.208739 56.417397,74.069547 51.240234,77.460938 48.06272,75.347539 40.890213,70.427221 33.703125,64.287109 a 0.50173418,0.50173418 0 0 0 -0.0039,-0.0039 c -1.388254,-1.162941 -3.464435,-0.995782 -4.654297,0.371094 a 0.50173418,0.50173418 0 0 0 -0.0039,0.0059 c -1.163023,1.380137 -1.014906,3.463228 0.36914,4.65625 a 0.50173418,0.50173418 0 0 0 0.002,0 c 4.947745,4.232898 9.85655,7.88556 13.580079,10.513672 3.722755,2.627566 6.306067,4.261173 6.457031,4.359375 0.548695,0.361015 1.171303,0.515625 1.779297,0.515625 0.619663,0 1.227914,-0.177106 1.763672,-0.509766 a 0.50173418,0.50173418 0 0 0 0.0039,-0.002 c 0.734311,-0.46488 9.758525,-6.176863 19.103515,-14.041015 9.342442,-7.862008 19.05075,-17.833849 21.107422,-27.121094 0.85715,-2.571764 1.300781,-5.248803 1.300781,-7.960938 0,-9.43032 -5.142129,-18.114346 -13.412109,-22.669921 C 77.486519,10.407333 73.450537,9.3955432 69.398438,9.3027344 Z" />
</g>
<g
   id="g1580">
</g>
<g
   id="g1582">
</g>
<g
   id="g1584">
</g>
<g
   id="g1586">
</g>
<g
   id="g1588">
</g>
<g
   id="g1590">
</g>
<g
   id="g1592">
</g>
<g
   id="g1594">
</g>
<g
   id="g1596">
</g>
<g
   id="g1598">
</g>
<g
   id="g1600">
</g>
<g
   id="g1602">
</g>
<g
   id="g1604">
</g>
<g
   id="g1606">
</g>
<g
   id="g1608">
</g>
</svg>