<?xml version="1.0" encoding="UTF-8" standalone="no"?>
<!-- Generator: Adobe Illustrator 19.0.0, SVG Export Plug-In . SVG Version: 6.00 Build 0)  -->

<svg
   xmlns:dc="http://purl.org/dc/elements/1.1/"
   xmlns:cc="http://creativecommons.org/ns#"
   xmlns:rdf="http://www.w3.org/1999/02/22-rdf-syntax-ns#"
   xmlns:svg="http://www.w3.org/2000/svg"
   xmlns="http://www.w3.org/2000/svg"
   xmlns:sodipodi="http://sodipodi.sourceforge.net/DTD/sodipodi-0.dtd"
   xmlns:inkscape="http://www.inkscape.org/namespaces/inkscape"
   version="1.1"
   id="Layer_1"
   x="0px"
   y="0px"
   viewBox="0 0 512 512"
   style="enable-background:new 0 0 512 512;"
   xml:space="preserve"
   sodipodi:docname="home.svg"
   inkscape:version="0.92.3 (2405546, 2018-03-11)"><metadata
   id="metadata978"><rdf:RDF><cc:Work
       rdf:about=""><dc:format>image/svg+xml</dc:format><dc:type
         rdf:resource="http://purl.org/dc/dcmitype/StillImage" /></cc:Work></rdf:RDF></metadata><defs
   id="defs976" /><sodipodi:namedview
   pagecolor="#ffffff"
   bordercolor="#666666"
   borderopacity="1"
   objecttolerance="10"
   gridtolerance="10"
   guidetolerance="10"
   inkscape:pageopacity="0"
   inkscape:pageshadow="2"
   inkscape:window-width="1293"
   inkscape:window-height="713"
   id="namedview974"
   showgrid="false"
   inkscape:zoom="0.25976563"
   inkscape:cx="1045.423"
   inkscape:cy="593.284"
   inkscape:window-x="67"
   inkscape:window-y="27"
   inkscape:window-maximized="1"
   inkscape:current-layer="Layer_1" />
<g
   id="g935">
	<g
   id="g933">
		<path
   d="M 255.39648,21.806641 C 242.0294,23.172558 233.86083,35.318559 222.81134,41.485856 148.06213,96.614312 72.481026,150.68558 -1.6972656,206.54102 -11.634435,217.52777 -2.9806677,238.19183 12.087891,238.06445 24.91874,238.38322 33.138746,226.74637 43.2643,220.78437 114.1775,168.86341 185.0907,116.94245 256.00391,65.021484 334.64773,122.15834 412.46498,180.50891 491.6543,236.83984 c 13.46661,6.01782 30.42767,-8.42202 25.77734,-22.70507 -3.58915,-12.33474 -17.16826,-16.65871 -25.90019,-24.49658 C 415.47714,134.31822 340.11148,77.972346 263.58594,23.349609 c -2.57359,-1.102614 -5.39122,-1.629612 -8.18946,-1.542968 z"
   id="path931"
   inkscape:connector-curvature="0" />
	</g>
</g>
<g
   id="g941">
	<g
   id="g939">
		<path
   d="m 441.05273,226.53516 c -12.4217,0.36057 -20.68325,14.14164 -18.10937,25.66992 0,66.46354 0,132.92708 0,199.39062 -31.48242,0 -62.96484,0 -94.44727,0 -0.57676,-40.87733 1.35251,-81.85856 -1.08276,-122.66992 -5.97877,-36.09586 -42.70057,-63.91908 -79.13845,-59.15449 -34.32001,3.42859 -64.19353,34.03569 -64.603,68.93379 -0.85396,21.78726 0.45538,43.55006 -0.19141,65.30469 0,15.86197 0,31.72395 0,47.58593 -31.47656,0 -62.95313,0 -94.429689,0 -0.323812,-70.19771 0.707811,-140.44372 -0.544922,-210.61132 -2.993992,-14.50086 -24.763289,-19.73552 -33.570312,-7.50977 -7.860411,10.15393 -3.288583,23.70061 -4.47328,35.3789 0.287956,68.86633 -0.654877,137.77575 0.500624,206.61524 2.530834,11.85071 16.230643,16.88811 27.115203,14.71733 43.473666,-0.46758 87.063656,1.05281 130.464876,-0.80522 11.59836,-3.33442 15.49324,-17.05887 13.56419,-27.79684 0.44848,-42.51734 -1.05883,-85.12229 0.83815,-127.58011 4.52831,-21.30642 32.1642,-33.35878 50.53125,-21.13477 12.37368,7.37244 18.5673,22.96975 16.45177,37.17771 0.43149,42.09696 -0.96767,84.29834 0.74355,126.3301 3.04637,11.33928 16.2776,15.83328 26.86717,13.81445 43.25815,-0.36422 86.59974,0.8118 129.80665,-0.62109 11.54493,-2.85838 16.27464,-16.26997 14.19858,-26.98827 -0.34213,-73.82526 0.73813,-147.7195 -0.56967,-221.50196 -2.11625,-8.77728 -10.91344,-15.1943 -19.92188,-14.54492 z"
   id="path937"
   inkscape:connector-curvature="0" />
	</g>
</g>
<g
   id="g943">
</g>
<g
   id="g945">
</g>
<g
   id="g947">
</g>
<g
   id="g949">
</g>
<g
   id="g951">
</g>
<g
   id="g953">
</g>
<g
   id="g955">
</g>
<g
   id="g957">
</g>
<g
   id="g959">
</g>
<g
   id="g961">
</g>
<g
   id="g963">
</g>
<g
   id="g965">
</g>
<g
   id="g967">
</g>
<g
   id="g969">
</g>
<g
   id="g971">
</g>
</svg>