<?xml version="1.0" encoding="UTF-8" standalone="no"?>
<!-- Generator: Adobe Illustrator 19.0.0, SVG Export Plug-In . SVG Version: 6.00 Build 0)  -->

<svg
   xmlns:dc="http://purl.org/dc/elements/1.1/"
   xmlns:cc="http://creativecommons.org/ns#"
   xmlns:rdf="http://www.w3.org/1999/02/22-rdf-syntax-ns#"
   xmlns:svg="http://www.w3.org/2000/svg"
   xmlns="http://www.w3.org/2000/svg"
   xmlns:sodipodi="http://sodipodi.sourceforge.net/DTD/sodipodi-0.dtd"
   xmlns:inkscape="http://www.inkscape.org/namespaces/inkscape"
   version="1.1"
   id="Capa_1"
   x="0px"
   y="0px"
   viewBox="0 0 563.43 563.43"
   style="enable-background:new 0 0 563.43 563.43;"
   xml:space="preserve"
   sodipodi:docname="profile.svg"
   inkscape:version="0.92.3 (2405546, 2018-03-11)"><metadata
   id="metadata2579"><rdf:RDF><cc:Work
       rdf:about=""><dc:format>image/svg+xml</dc:format><dc:type
         rdf:resource="http://purl.org/dc/dcmitype/StillImage" /></cc:Work></rdf:RDF></metadata><defs
   id="defs2577" /><sodipodi:namedview
   pagecolor="#ffffff"
   bordercolor="#666666"
   borderopacity="1"
   objecttolerance="10"
   gridtolerance="10"
   guidetolerance="10"
   inkscape:pageopacity="0"
   inkscape:pageshadow="2"
   inkscape:window-width="1293"
   inkscape:window-height="713"
   id="namedview2575"
   showgrid="false"
   inkscape:zoom="0.41886304"
   inkscape:cx="3.5811228"
   inkscape:cy="281.715"
   inkscape:window-x="67"
   inkscape:window-y="27"
   inkscape:window-maximized="1"
   inkscape:current-layer="Capa_1" />
<path
   style="stroke-width:0.84872884"
   d="m 279.24219,50.011719 c -52.76521,-0.0853 -103.24785,35.198119 -121.67969,84.589841 -17.41769,44.68744 -7.83375,98.52236 24.33676,134.18986 30.15749,34.6099 79.084,51.62992 124.14371,42.48983 48.68921,-9.13489 90.40481,-47.81307 102.58594,-95.92969 12.1359,-45.28693 -1.8296,-96.66552 -36.24414,-128.75781 C 347.66161,62.927623 313.50506,49.321361 279.24219,50.011719 Z m 3.43945,41.355469 c 40.16369,0.209795 77.69819,30.659492 86.26953,70.083982 8.78159,36.57847 -8.35287,77.5125 -40.66992,96.95508 -31.17156,19.60201 -74.05342,17.49302 -102.7986,-5.64976 -29.33344,-22.62643 -42.57764,-64.10519 -30.33277,-99.31075 11.27152,-34.78459 45.68824,-61.249825 82.01614,-61.994568 1.83768,-0.07537 3.67671,-0.08022 5.51562,-0.08398 z"
   id="path2540"
   inkscape:connector-curvature="0" />
<path
   style="stroke-width:0.84872884"
   d="m 354.32617,327.78516 c -54.00189,0.63107 -108.03483,-0.34911 -162.0312,0.49101 -60.57578,3.53428 -117.258931,43.65983 -140.494062,99.76553 -9.208489,21.94449 -14.51985,46.10821 -12.537236,69.929 2.707688,11.36197 15.420829,17.41706 26.363281,15.45849 147.205507,-0.14225 294.428477,0.293 441.623047,-0.22607 12.4877,-1.54234 19.89558,-15.30548 17.45694,-27.01502 C 523.00666,424.5771 483.04047,366.20074 426.5,341.83398 403.86283,331.89076 378.99503,327.44542 354.32617,327.78516 Z m -47.6582,41.89648 c 23.73604,0.47482 47.59004,-0.86497 71.24609,1.25195 46.51802,6.3896 87.23995,41.59974 100.01563,86.61133 1.38338,4.66283 2.48065,9.33196 3.29101,14.11914 -133.00781,0 -266.01562,0 -399.023434,0 8.213249,-51.28029 52.437754,-94.32095 103.812504,-100.73047 22.41584,-2.51615 45.05941,-0.51959 67.56639,-1.18325 17.69726,-0.0306 35.39451,-0.0655 53.09181,-0.0687 z"
   id="path2542"
   inkscape:connector-curvature="0" />
<g
   id="g2544"
   transform="matrix(0.84872882,0,0,0.84872882,42.615362,42.615362)">
</g>
<g
   id="g2546"
   transform="matrix(0.84872882,0,0,0.84872882,42.615362,42.615362)">
</g>
<g
   id="g2548"
   transform="matrix(0.84872882,0,0,0.84872882,42.615362,42.615362)">
</g>
<g
   id="g2550"
   transform="matrix(0.84872882,0,0,0.84872882,42.615362,42.615362)">
</g>
<g
   id="g2552"
   transform="matrix(0.84872882,0,0,0.84872882,42.615362,42.615362)">
</g>
<g
   id="g2554"
   transform="matrix(0.84872882,0,0,0.84872882,42.615362,42.615362)">
</g>
<g
   id="g2556"
   transform="matrix(0.84872882,0,0,0.84872882,42.615362,42.615362)">
</g>
<g
   id="g2558"
   transform="matrix(0.84872882,0,0,0.84872882,42.615362,42.615362)">
</g>
<g
   id="g2560"
   transform="matrix(0.84872882,0,0,0.84872882,42.615362,42.615362)">
</g>
<g
   id="g2562"
   transform="matrix(0.84872882,0,0,0.84872882,42.615362,42.615362)">
</g>
<g
   id="g2564"
   transform="matrix(0.84872882,0,0,0.84872882,42.615362,42.615362)">
</g>
<g
   id="g2566"
   transform="matrix(0.84872882,0,0,0.84872882,42.615362,42.615362)">
</g>
<g
   id="g2568"
   transform="matrix(0.84872882,0,0,0.84872882,42.615362,42.615362)">
</g>
<g
   id="g2570"
   transform="matrix(0.84872882,0,0,0.84872882,42.615362,42.615362)">
</g>
<g
   id="g2572"
   transform="matrix(0.84872882,0,0,0.84872882,42.615362,42.615362)">
</g>
</svg>